<svg preserveAspectRatio="none" width="100%" height="100%" overflow="visible" style="display: block;" viewBox="0 0 16 20" fill="none" xmlns="http://www.w3.org/2000/svg">
<path id="Apple TV+ Logotype" d="M10.9436 3.20872C11.6816 2.31221 12.0473 1.16241 11.9642 0C10.8331 0.110157 9.78905 0.660419 9.05326 1.53415C8.68686 1.95266 8.40603 2.4401 8.22691 2.96847C8.04779 3.49683 7.97391 4.05571 8.00951 4.61297C8.57293 4.62412 9.13123 4.50308 9.64039 4.25939C10.1496 4.01571 10.5957 3.65603 10.9436 3.20872ZM11.8946 4.82478C10.271 4.72999 8.90249 5.76095 8.12548 5.76095C7.34846 5.76095 6.16555 4.87627 4.88985 4.89968C4.05455 4.92343 3.24006 5.16797 2.52777 5.60886C1.81548 6.04975 1.23034 6.67155 0.830819 7.41212C-0.908766 10.4547 0.36693 14.9869 2.06013 17.4642C2.88353 18.6415 3.86929 20.0446 5.17978 19.9989C6.49027 19.9533 6.89617 19.1798 8.39222 19.1798C9.88826 19.1798 10.329 19.9989 11.6278 19.9697C12.9267 19.9404 13.8313 18.7901 14.6431 17.5122C15.2287 16.6394 15.6857 15.6855 16 14.6803C15.2202 14.3319 14.5568 13.7635 14.0897 13.0435C13.6226 12.3235 13.3718 11.4826 13.3674 10.622C13.377 9.85846 13.5764 9.10955 13.9471 8.44387C14.3179 7.7782 14.8483 7.21704 15.4897 6.8118C15.0822 6.22383 14.5459 5.73851 13.9224 5.3935C13.2989 5.0485 12.605 4.85309 11.8946 4.82244" fill="var(--fill-0, #000008)"/>
</svg>
