<svg preserveAspectRatio="none" width="100%" height="100%" overflow="visible" style="display: block;" viewBox="0 0 43.13 40.1039" fill="none" xmlns="http://www.w3.org/2000/svg">
<g id="Group 1">
<path id="Vector" d="M21.6462 39.6846C21.4916 39.4142 21.2984 38.0231 21.1825 36.5935C20.9893 33.9274 20.9893 33.9274 21.9939 33.9274C22.9213 33.9274 22.9986 34.0819 23.2304 36.4389C23.3849 37.7913 23.4236 39.1823 23.269 39.5301C23.0372 40.2256 22.0326 40.3029 21.6462 39.6846Z" fill="var(--fill-0, #E84D8A)"/>
<path id="Vector_2" d="M10.0921 38.4868C9.97613 38.2163 10.208 36.7866 10.5557 35.2797C11.174 32.8068 11.3285 32.5749 12.3331 32.459C13.5696 32.3045 13.531 32.2272 12.6809 35.4729C11.9081 38.4095 11.599 38.9504 10.8262 38.9504C10.5171 38.9504 10.1693 38.7186 10.0921 38.4868Z" fill="var(--fill-0, #E84D8A)"/>
<path id="Vector_3" d="M30.7646 35.8593C29.76 33.8887 29.6827 33.5023 30.185 33.3091C31.1897 32.9227 31.8465 33.425 32.8898 35.4343C34.0876 37.8686 34.0876 38.1777 32.8898 38.1777C32.117 38.1777 31.7306 37.7527 30.7646 35.8593Z" fill="var(--fill-0, #E84D8A)"/>
<path id="Vector_4" d="M41.7004 35.5888C41.0049 35.357 38.8024 31.6862 39.0729 31.2225C39.5752 30.4111 40.4639 30.8748 41.7777 32.6908C42.5118 33.6955 43.13 34.7001 43.13 34.9319C43.13 35.4729 42.3573 35.8206 41.7004 35.5888Z" fill="var(--fill-0, #E84D8A)"/>
<path id="Vector_5" d="M3.71722 23.8811C3.71722 23.4174 0.355588 3.82715 0.0464719 2.35885C-0.108086 1.6247 0.0464718 1.50878 1.70797 1.31559C4.95369 0.929191 39.2269 -0.229994 39.4974 0.0404824C39.652 0.19504 39.2656 3.90443 38.6473 8.30934C37.6427 15.6122 37.4495 16.3464 36.754 16.4623C36.213 16.5395 34.5902 15.2644 31.5763 12.4824C29.142 10.2413 27.0168 8.42525 26.8623 8.42525C26.5532 8.42525 26.36 8.92757 24.1962 16.5395C22.8438 21.2536 22.3801 22.1036 21.4141 21.7559C21.0664 21.6013 19.0957 18.742 17.0479 15.3417C15 11.9801 13.1839 9.19804 13.068 9.19804C12.9134 9.19804 11.2133 12.5597 9.31995 16.6555C6.11287 23.3787 5.72648 24.0743 4.76049 24.1902C4.14226 24.2674 3.71722 24.1129 3.71722 23.8811ZM11.7542 6.87967C11.9474 6.57056 12.4498 6.26144 12.8748 6.18416C13.5317 6.06824 14.3431 7.18879 17.4729 12.2506C19.5208 15.6895 21.2982 18.3942 21.3755 18.317C21.4528 18.2397 22.3415 15.419 23.3461 12.0574C24.8917 6.87967 25.2781 5.91369 25.9736 5.79777C26.5145 5.72049 28.0988 6.91831 31.1513 9.739C35.1698 13.4097 35.6335 13.7189 35.8267 12.9461C36.2517 11.2846 37.4882 1.47014 37.2563 1.27695C37.1404 1.16103 32.8128 1.23831 27.6351 1.47014C22.4574 1.66334 14.6908 1.97246 10.3632 2.12702C6.07423 2.24293 2.48076 2.47477 2.40348 2.59069C2.28756 2.74525 4.76049 17.8147 5.26281 20.0171C5.30144 20.133 6.69247 17.351 8.35397 13.8348C10.0541 10.3186 11.5997 7.18879 11.7542 6.87967Z" fill="var(--fill-0, #E84D8A)"/>
</g>
</svg>
