<svg preserveAspectRatio="none" width="100%" height="100%" overflow="visible" style="display: block;" viewBox="0 0 36 44" fill="none" xmlns="http://www.w3.org/2000/svg">
<path id="Vector" d="M0.162287 43.5531C-0.295235 42.9903 -0.0011135 42.8247 3.92051 41.7653C6.53492 41.037 12.45 38.2891 13.7572 37.1966L14.4762 36.6007L13.7246 34.0184C12.0579 28.4897 11.8945 23.8216 13.2997 20.9414C14.5089 18.3922 17.0906 17.4983 19.2802 18.8888C22.0253 20.6103 22.058 23.9541 19.4763 30.0125C18.5612 32.1645 17.8749 33.9522 17.9403 34.0184C18.1691 34.2502 22.4175 29.3173 23.8554 27.0992C24.6724 25.9073 25.8816 23.7554 26.5025 22.365L27.679 19.882L27.1561 16.4058C26.3718 11.175 26.143 6.47389 26.6332 4.15644C27.7117 -1.00815 32.6137 -1.47164 34.934 3.395C36.0778 5.84487 36.2739 7.76504 35.6529 10.2811C34.934 13.1614 33.8555 15.0153 31.2411 17.8956C29.8032 19.5178 28.7901 21.0407 28.2999 22.2988C27.2541 24.9142 23.4632 30.6085 21.4371 32.6279C20.522 33.5218 19.7704 34.3495 19.7704 34.4819C19.7704 34.5812 20.522 34.4819 21.4698 34.2502C23.4632 33.7205 28.2345 33.6542 29.9339 34.1177C32.7117 34.9123 34.6399 36.998 34.6399 39.2492C34.6399 40.739 33.8229 41.9971 32.3522 42.8247C29.313 44.48 23.7247 43.222 17.9076 39.5472C15.4893 38.0243 15.4239 37.9912 14.5742 38.554C11.4369 40.5735 6.50224 42.6923 2.9401 43.5531C0.325688 44.149 0.65249 44.149 0.162287 43.5531ZM31.764 41.4011C33.8555 40.11 33.398 37.4284 30.8163 36.0379C29.6398 35.4089 28.9208 35.2765 26.143 35.2765C22.973 35.2765 18.4632 36.1372 18.4632 36.7663C18.4632 37.3953 20.8161 37.8588 23.9861 37.8919C26.3718 37.925 27.4502 38.0574 27.5483 38.3554C27.777 39.0506 25.9143 39.481 23.1038 39.3486C21.6332 39.2823 20.424 39.2823 20.424 39.3154C20.424 39.3817 21.0449 39.7127 21.8292 40.11C25.5548 42.0633 29.8032 42.6261 31.764 41.4011ZM15.8161 25.1128C16.1429 24.2189 16.9272 23.8879 17.2867 24.4838C17.3847 24.6493 17.3521 25.5763 17.1886 26.5364C16.7638 29.0525 16.5677 31.8003 16.7965 31.8003C17.0252 31.8003 18.4959 28.5228 19.2802 26.2053C19.5416 25.4108 19.7704 24.0203 19.7704 23.1264C19.7704 21.769 19.607 21.3387 18.8227 20.511C17.6789 19.3854 16.8945 19.3192 15.7507 20.2462C14.1167 21.5042 13.5285 25.2452 14.2148 29.3504C14.7703 32.5286 14.9664 32.4955 15.2278 29.1518C15.3586 27.4302 15.62 25.6094 15.8161 25.1128ZM33.2673 12.2675C34.117 10.4798 34.2804 9.71832 34.2804 7.79815C34.2804 4.58683 32.9732 2.13695 30.947 1.50793C29.7052 1.14376 28.3653 2.79908 28.1038 5.14964C27.8424 7.06981 28.1038 12.2344 28.5613 14.7505L28.7901 16.0747L29.1496 14.585C29.3783 13.7573 29.6398 12.1682 29.7705 11.0426C29.9666 9.02308 30.3914 8.42717 31.2084 8.95687C31.6006 9.22172 31.5026 10.5129 30.7182 15.2471L30.5222 16.4058L31.3718 15.4126C31.862 14.8829 32.7117 13.4593 33.2673 12.2675Z" fill="var(--fill-0, white)"/>
</svg>
