<svg preserveAspectRatio="none" width="100%" height="100%" overflow="visible" style="display: block;" viewBox="0 0 217.366 106" fill="none" xmlns="http://www.w3.org/2000/svg">
<g id="Group 7">
<path id="Vector" d="M205.819 0.445956C205.469 0.795794 205.219 1.6454 205.219 2.39505C205.219 5.79348 202.271 10.6912 199.172 12.4404C196.523 13.9897 196.773 14.9892 200.022 15.389C201.371 15.5889 203.02 15.9888 203.57 16.3886C204.969 17.2382 206.569 20.1368 206.969 22.5857C207.518 25.8842 207.718 26.334 208.718 26.334C209.717 26.334 209.867 25.9342 210.467 22.0859C211.117 17.638 212.316 15.1392 215.065 12.4404C217.863 9.74165 218.063 8.84207 215.914 8.84207C212.616 8.84207 209.667 6.3932 208.318 2.59496C207.368 -0.0038357 206.769 -0.503604 205.819 0.445956ZM210.967 9.6417C211.816 10.1415 212.516 10.5913 212.616 10.6412C212.716 10.6912 212.066 11.7907 211.267 13.0901C210.417 14.4395 209.467 16.2886 209.167 17.1882L208.618 18.9374L207.718 17.4381C206.819 15.9388 204.72 14.2895 203.02 13.6898C202.221 13.34 202.271 13.1401 203.82 11.4409C204.72 10.4413 205.819 8.84207 206.169 7.94248L206.869 6.29325L208.168 7.49269C208.868 8.19237 210.167 9.14193 210.967 9.6417Z" fill="var(--fill-0, #E84D8A)"/>
<path id="Vector_2" d="M113.212 3.99441C112.262 4.59413 110.963 6.09344 110.363 7.24291L109.164 9.39191L106.715 7.09298C103.616 4.19432 101.717 4.09437 100.318 6.74314C99.868 7.59275 99.868 8.3424 100.318 9.99163C101.467 14.3396 106.815 21.3364 109.014 21.3364C111.113 21.3364 116.36 14.1897 117.96 9.24198C118.959 5.99349 118.509 4.09437 116.51 3.34471C114.861 2.69501 115.211 2.64504 113.212 3.99441Z" fill="var(--fill-0, #E84D8A)"/>
<path id="Vector_3" d="M137.75 16.4886C133.901 17.3882 130.253 19.4873 127.005 22.7857C125.505 24.285 124.256 25.7344 124.256 25.8843C124.256 26.0842 121.707 27.0837 118.659 28.1333C112.611 30.0824 111.762 30.5321 111.762 31.6816C111.762 32.0814 113.261 34.3304 115.06 36.6793L118.409 40.9273L118.109 44.1258C117.709 48.174 118.459 57.1198 119.758 63.6168C124.006 85.2068 132.902 98.1009 147.245 103.348C166.287 110.295 188.676 101.399 205.818 80.1592C209.367 75.7112 209.766 75.0115 209.517 73.6122C208.567 68.9144 200.221 58.4192 194.224 54.3211C191.675 52.6219 187.577 50.323 187.027 50.323C186.877 50.323 185.728 52.372 184.378 54.8709C181.929 59.5187 176.532 66.7154 174.183 68.4646C170.535 71.1134 168.535 66.6154 166.237 50.8227C164.787 40.8774 163.888 36.6793 162.288 32.5312C157.69 20.6367 147.845 14.1897 137.75 16.4886ZM148.645 19.5872C152.443 21.3364 156.291 25.4845 158.69 30.4822C161.089 35.3299 162.338 40.3776 163.738 50.5729C165.037 59.9685 166.037 64.4165 167.486 67.465C168.386 69.4141 168.535 70.2138 168.186 71.963C166.836 78.9597 168.436 88.5553 172.234 96.0018C173.583 98.7506 174.683 101.049 174.583 101.099C173.833 101.899 167.286 102.949 162.138 103.149C152.293 103.548 146.296 101.799 139.349 96.5516C128.154 88.1055 120.708 68.2647 120.708 47.1245C120.758 36.7793 123.106 29.9324 128.554 24.435C134.651 18.3378 141.998 16.5386 148.645 19.5872ZM120.508 32.6312C119.808 34.2304 119.258 35.9796 119.258 36.4294C119.258 36.9292 119.108 37.329 118.908 37.329C118.459 37.279 114.71 32.5312 114.71 31.9815C114.71 31.6816 121.257 29.3827 121.607 29.5826C121.657 29.5826 121.157 30.9819 120.508 32.6312ZM194.474 57.8195C195.023 58.7191 192.374 62.8172 191.225 62.8172C190.225 62.8172 190.325 61.118 191.475 59.3188C192.674 57.3697 193.824 56.82 194.474 57.8195ZM199.721 64.2665C199.721 65.366 196.473 68.5146 195.773 68.1147C194.873 67.515 195.173 66.5655 196.822 64.7163C198.422 62.9171 199.721 62.7172 199.721 64.2665ZM186.977 68.1147C183.978 72.3128 183.279 74.012 184.078 75.2614C185.228 77.0606 186.127 76.7607 195.473 71.4132C195.773 71.2133 194.923 72.3128 193.624 73.8121C187.577 80.7089 189.226 83.8575 196.373 79.0597C198.222 77.8103 199.721 76.9107 199.721 77.0606C199.721 77.2105 198.372 78.9597 196.772 80.9588C193.274 85.2068 192.474 86.906 193.274 88.4553C193.774 89.3549 193.674 89.6548 192.424 90.6543C188.726 93.7029 184.578 96.4016 184.328 96.0018C184.128 95.702 183.229 94.4525 182.329 93.1032C178.631 87.9056 176.032 80.7089 175.432 74.012L175.132 70.5136L176.932 69.1643C177.931 68.3646 178.731 67.9648 178.731 68.2647C178.731 68.5146 179.081 69.0643 179.48 69.5141C180.58 70.5636 182.329 69.814 186.227 66.6154C188.026 65.1161 189.526 64.0166 189.626 64.0666C189.726 64.1666 188.526 65.9657 186.977 68.1147ZM203.869 69.0143C204.219 69.8639 201.42 73.3123 200.421 73.3123C198.921 73.3123 199.071 71.7631 200.771 70.0139C202.52 68.2147 203.469 67.9148 203.869 69.0143ZM172.983 74.6617C173.733 81.5585 176.282 88.5553 180.28 94.4026C181.38 96.0018 182.229 97.4012 182.229 97.5511C182.229 97.9009 178.181 99.7501 177.431 99.8001C176.632 99.8001 172.384 91.1541 171.434 87.5557C170.535 84.1073 169.935 75.7612 170.435 73.1124C170.684 71.813 171.034 71.3133 171.684 71.3133C172.484 71.3133 172.684 71.863 172.983 74.6617Z" fill="var(--fill-0, #E84D8A)"/>
<path id="Vector_4" d="M133.403 31.1819C132.303 31.5817 132.603 36.0296 133.752 37.0791C135.502 38.6784 138.15 38.2286 140.1 36.1296C140.999 35.13 141.749 33.9806 141.749 33.5807C141.749 32.3313 140 32.7311 138.6 34.3304C137.851 35.13 136.801 35.8297 136.251 35.8297C135.502 35.8297 135.302 35.4299 135.152 33.4808C135.002 31.1819 134.602 30.6821 133.403 31.1819Z" fill="var(--fill-0, #E84D8A)"/>
<path id="Vector_5" d="M150.045 54.7209C149.896 55.0207 150.095 56.1702 150.545 57.3696C151.645 60.5182 152.045 65.9157 151.245 67.8148C150.745 69.0642 150.345 69.3141 148.896 69.3141C146.397 69.3141 143.349 66.3155 142.499 63.067C142.049 61.1679 141.649 60.5682 140.95 60.5682C140.25 60.5682 139.95 60.968 139.85 62.0675C139.75 62.8671 139.3 63.9666 138.901 64.4164C136.852 66.7153 134.253 64.2165 134.253 60.0184C134.253 57.4696 134.203 57.3197 133.003 57.3197C131.854 57.3197 131.754 57.5196 131.754 59.4187C131.754 62.6172 132.604 65.166 134.103 66.3155C135.502 67.415 138.201 67.6649 139.75 66.8153C140.55 66.3655 141.1 66.6653 142.899 68.4645C146.447 72.0129 150.795 72.5126 152.944 69.614C155.043 66.8153 153.644 54.9208 151.145 54.421C150.695 54.321 150.195 54.471 150.045 54.7209Z" fill="var(--fill-0, #E84D8A)"/>
<path id="Vector_6" d="M137.602 83.9573C137.252 84.9569 139.851 88.8051 140.9 88.8051C142.1 88.8051 141.95 87.6056 140.45 85.3067C139.101 83.2577 138.051 82.8079 137.602 83.9573Z" fill="var(--fill-0, #E84D8A)"/>
<path id="Vector_7" d="M143.896 84.1571C142.696 84.6069 143.246 85.6564 145.295 87.0558C146.795 88.0553 147.494 88.2552 147.894 87.8554C148.294 87.4556 148.294 87.0058 147.994 86.506C147.294 85.4065 144.596 83.9072 143.896 84.1571Z" fill="var(--fill-0, #E84D8A)"/>
<path id="Vector_8" d="M143.248 90.5043C143.248 90.9041 144.048 91.8537 145.047 92.6033C146.646 93.8028 146.896 93.9027 147.546 93.2031C148.246 92.5034 148.146 92.3035 146.596 91.104C144.747 89.6547 143.248 89.4048 143.248 90.5043Z" fill="var(--fill-0, #E84D8A)"/>
<path id="Vector_9" d="M176.934 73.5123C176.384 74.9616 176.934 76.0611 178.233 76.0611C179.283 76.0611 179.482 75.8112 179.482 74.5618C179.482 73.3624 179.233 73.0125 178.333 72.9126C177.683 72.8126 177.134 73.0625 176.934 73.5123Z" fill="var(--fill-0, #E84D8A)"/>
<path id="Vector_10" d="M179.782 78.7099C179.133 79.9593 180.182 81.5086 181.531 81.2088C182.981 80.9589 182.881 78.1102 181.382 77.9103C180.732 77.8103 180.082 78.1102 179.782 78.7099Z" fill="var(--fill-0, #E84D8A)"/>
<path id="Vector_11" d="M182.879 84.1073C182.479 85.1068 183.279 86.5062 184.378 86.7061C185.478 86.956 186.477 84.9569 185.678 84.0073C184.878 83.0578 183.279 83.1078 182.879 84.1073Z" fill="var(--fill-0, #E84D8A)"/>
<path id="Vector_12" d="M185.831 88.2554C185.431 88.4553 185.231 89.2049 185.331 89.8546C185.531 91.304 187.58 91.5538 188.38 90.2045C189.329 88.7052 187.43 87.2058 185.831 88.2554Z" fill="var(--fill-0, #E84D8A)"/>
<path id="Vector_13" d="M75.9805 17.9879C70.533 20.0869 65.8852 24.235 62.4368 30.0823C60.0879 34.0805 58.0388 39.478 55.5899 48.074C51.9416 60.8681 49.9925 65.1661 46.3442 68.4645C43.5955 70.9134 41.1966 71.1133 38.4479 69.0143C36.2988 67.3651 32.1008 58.769 30.6015 52.8218C29.8019 49.5733 29.1522 48.024 28.6024 47.9241C27.5529 47.6742 20.4062 51.4724 16.408 54.421C10.8106 58.4692 3.26411 66.4655 0.565362 71.1133C-0.284246 72.6126 -0.284246 72.6626 1.31502 75.8611C7.56213 88.2554 16.6079 97.701 26.9532 102.599C33.1503 105.497 36.049 106.047 45.0448 105.997C52.2415 105.997 53.4909 105.847 57.4391 104.648C71.8324 100.25 84.1767 90.2545 92.8227 76.061C98.5701 66.5654 102.268 54.621 102.268 45.3752C102.268 41.577 102.318 41.477 104.068 39.7778C106.416 37.5788 110.764 32.3813 110.764 31.8315C110.764 30.682 109.065 29.8324 106.816 29.8324C105.467 29.8324 103.368 29.6825 102.118 29.5326C99.9694 29.2327 99.6696 29.0328 98.3202 26.6339C96.471 23.3854 93.3725 20.3368 90.124 18.5377C86.4257 16.5386 80.3785 16.2887 75.9805 17.9879ZM87.4252 19.6372C90.9236 20.8366 94.422 24.285 96.521 28.4831C98.77 33.0809 99.7695 37.7788 99.7695 44.1258C99.7695 53.0717 97.8704 60.7681 93.2226 70.0638C85.1263 86.4062 70.9328 98.9004 56.0397 102.849C52.0916 103.848 40.297 104.798 40.297 104.098C40.297 103.898 41.0966 102.699 42.0962 101.399C44.695 97.9509 47.6436 91.6038 48.8431 86.806C49.7426 83.2577 49.8926 81.5585 49.6927 75.8611C49.4428 69.0643 49.4428 69.0643 50.8421 67.1651C52.8412 64.4164 54.8903 59.2188 57.4891 50.223C61.987 34.8301 64.5358 29.5326 69.7334 24.7348C75.3808 19.4872 81.6779 17.6881 87.4252 19.6372ZM107.766 32.1813C107.766 32.881 102.218 38.2285 102.018 37.6788C101.719 36.5293 100.769 32.3813 100.769 31.9814C100.769 31.7815 102.318 31.6316 104.267 31.7316C106.167 31.8315 107.766 32.0314 107.766 32.1813ZM28.2526 59.6186C29.6019 62.8172 29.7519 63.5668 29.2021 64.1166C28.8523 64.4664 28.3025 64.6163 28.0027 64.4164C27.2031 63.8667 24.7042 57.2697 25.0041 56.5201C25.6038 54.9208 26.7533 56.0203 28.2526 59.6186ZM22.7051 64.0666C24.5543 67.8648 24.7042 68.8144 23.3049 68.8144C21.9555 68.8144 18.4571 62.0675 19.3067 61.068C20.2063 59.9685 21.0059 60.6682 22.7051 64.0666ZM16.1082 69.8139C18.2572 73.0124 18.707 74.8116 17.3076 74.8116C16.8079 74.8116 13.9092 71.0633 12.7597 68.9643C12.16 67.8148 12.4599 66.3155 13.3095 66.3155C13.5594 66.3155 14.8588 67.8648 16.1082 69.8139ZM37.5483 71.3132C37.6982 71.6131 38.8477 72.0629 40.0971 72.3627C42.0962 72.8625 42.2961 73.0624 42.2961 74.5117C42.2961 82.2582 37.8981 93.5529 32.6006 99.6001L30.5015 101.949L26.8032 100.1C23.2549 98.2507 18.2072 94.7524 16.8578 93.1531C16.3581 92.5034 16.408 92.2035 17.3076 91.304C18.1073 90.5043 18.3072 89.9046 18.0573 88.8051C17.7574 87.4058 17.7574 87.3558 19.2567 87.9555C20.5561 88.4053 20.906 88.3553 21.8555 87.5557C22.7551 86.7061 22.8551 86.2063 22.6052 84.3072C22.3553 82.608 22.4053 82.2082 22.905 82.7079C23.2549 83.0578 24.1045 83.3077 24.9041 83.3077C26.7533 83.3077 28.0027 81.3586 27.6528 79.1096L27.403 77.4104L28.8523 78.1601C30.2017 78.8098 30.4516 78.8098 31.551 78.1101C33.0504 77.1105 33.5501 75.4613 32.8504 73.6621C32.3507 72.4127 32.4007 72.3128 33.2003 72.7626C34.2998 73.3123 36.2988 72.5626 36.2988 71.5631C36.2988 70.7135 37.0985 70.5636 37.5483 71.3132ZM47.3437 77.6103C47.3437 86.4062 44.9449 93.6529 39.9472 100.2C37.9481 102.799 37.3484 103.298 36.049 103.298C33.2003 103.298 33.1503 102.749 35.949 99.0504C41.2965 91.9037 44.7949 82.0083 44.7949 73.962C44.7949 72.4127 44.9948 71.813 45.6945 71.6631C46.1443 71.5631 46.744 71.6631 46.9439 71.813C47.1938 72.0129 47.3437 74.6117 47.3437 77.6103ZM10.3109 74.8116C11.1605 76.5108 11.7102 78.0601 11.5603 78.31C10.8606 79.4095 9.76111 78.6598 8.31178 76.161C6.56259 73.1124 6.41266 71.813 7.81201 71.813C8.51169 71.813 9.21137 72.6626 10.3109 74.8116Z" fill="var(--fill-0, #E84D8A)"/>
<path id="Vector_14" d="M88.0255 30.9319C87.9256 31.2818 87.7757 32.1314 87.6757 32.7811C87.5757 33.4308 87.126 34.2304 86.6262 34.5303C85.9265 34.98 85.5767 34.8301 84.6271 33.6307C83.3277 32.0314 82.2782 32.2313 82.2782 34.0305C82.2782 36.5793 85.6266 37.9287 88.1255 36.3794C89.7747 35.3799 90.7243 32.7311 90.0746 31.0819C89.7247 30.1823 88.3254 30.0823 88.0255 30.9319Z" fill="var(--fill-0, #E84D8A)"/>
<path id="Vector_15" d="M80.327 59.1689C79.2276 65.1161 76.029 69.4641 73.98 67.8149C73.3803 67.2651 73.2303 66.4155 73.3803 64.1166C73.4802 61.5677 73.3803 61.068 72.6806 60.918C72.0809 60.8181 71.4811 61.4678 70.6315 63.167C69.0323 66.2656 64.9841 71.6631 63.4848 72.6626C59.3867 75.3114 58.787 67.9148 62.4853 60.6682C63.8846 57.9694 64.0846 57.2198 63.4848 56.9699C62.1854 56.4701 61.3858 57.2198 59.7366 60.6182C58.3372 63.4169 58.0374 64.6163 57.8874 68.3146C57.6875 72.5127 57.7375 72.8125 58.9369 74.012C59.8365 74.9116 60.7861 75.3114 62.0355 75.3114C63.5348 75.3114 64.2845 74.8616 66.7333 72.4127C68.3326 70.8634 69.8819 69.1143 70.1817 68.6145C70.6315 67.6649 70.7315 67.6649 72.2808 68.9643C73.2303 69.8139 74.4798 70.3137 75.3793 70.3137C78.6278 70.3137 82.4261 64.2665 82.8259 58.5691C83.0258 56.3702 82.9258 56.0703 81.9763 55.9204C81.0767 55.7704 80.8768 56.1702 80.327 59.1689Z" fill="var(--fill-0, #E84D8A)"/>
<path id="Vector_16" d="M65.9348 85.6566C64.1356 87.6057 63.8358 88.8052 65.0852 88.8052C66.1847 88.8052 68.8834 85.9565 68.6835 84.9569C68.4336 83.5576 67.584 83.7575 65.9348 85.6566Z" fill="var(--fill-0, #E84D8A)"/>
<path id="Vector_17" d="M71.3298 87.1557C69.6806 89.1548 69.3307 90.804 70.4802 90.804C71.4798 90.804 74.4284 86.9558 74.0786 86.0562C73.6288 84.9068 72.9791 85.1567 71.3298 87.1557Z" fill="var(--fill-0, #E84D8A)"/>
<path id="Vector_18" d="M64.8844 92.3534C62.6354 94.0027 62.3355 94.6524 63.535 95.1021C64.5345 95.502 68.3828 92.8532 68.1828 91.9036C67.933 90.6042 67.0834 90.7542 64.8844 92.3534Z" fill="var(--fill-0, #E84D8A)"/>
<path id="Vector_19" d="M34.9981 77.0105C34.4484 78.4599 34.9981 79.5593 36.2975 79.5593C37.347 79.5593 37.5469 79.3095 37.5469 78.06C37.5469 76.8606 37.297 76.5108 36.3975 76.4108C35.7478 76.3108 35.198 76.5607 34.9981 77.0105Z" fill="var(--fill-0, #E84D8A)"/>
<path id="Vector_20" d="M31.1513 83.0077C30.4516 84.7569 32.3007 86.3562 33.6501 85.2567C34.0499 84.9068 34.2998 84.1572 34.1999 83.6074C34 82.308 31.6011 81.8583 31.1513 83.0077Z" fill="var(--fill-0, #E84D8A)"/>
<path id="Vector_21" d="M26.3506 87.7056C26.0007 88.4053 26.0507 88.9051 26.5505 89.6047C27.4501 90.8541 29.0493 89.9546 29.0493 88.2554C29.0493 86.7061 27.1002 86.3063 26.3506 87.7056Z" fill="var(--fill-0, #E84D8A)"/>
<path id="Vector_22" d="M22.6519 92.6032C22.0022 93.2529 22.302 95.202 23.1017 95.5019C24.2012 95.9517 25.4006 94.8522 25.2007 93.6028C25.0508 92.5533 23.3516 91.9036 22.6519 92.6032Z" fill="var(--fill-0, #E84D8A)"/>
</g>
</svg>
