<svg preserveAspectRatio="none" width="100%" height="100%" overflow="visible" style="display: block;" viewBox="0 0 8.82999 12.1038" fill="none" xmlns="http://www.w3.org/2000/svg">
<g id="Group 12">
<path id="Vector" d="M4.3435 11.7178C4.18907 11.4862 4.05394 11.1966 4.05394 11.0422C4.05394 10.1348 2.29723 7.91483 0.849396 7.00752C0.386089 6.69865 0 6.35117 0 6.23534C0 6.10021 0.366785 5.81064 0.830092 5.57899C2.14279 4.90334 2.85706 4.26629 3.28176 3.35898C3.62924 2.64471 3.68715 2.31654 3.57132 1.25479C3.43619 0.0772211 3.4555 3.23407e-06 3.82228 3.23407e-06C4.24698 3.23407e-06 4.38211 0.366788 4.72959 2.12349C4.80681 2.49028 5.15429 3.41689 5.52107 4.18907C6.17743 5.57899 6.911 6.33186 8.26231 7.02683C8.60979 7.21987 8.88005 7.45152 8.82214 7.58665C8.78353 7.70248 8.26231 7.93413 7.64456 8.08857C6.83378 8.28161 6.31256 8.55188 5.75273 9.0924C4.98055 9.82597 4.96125 9.84528 5.09638 10.8877C5.23151 12.0846 4.88403 12.4707 4.3435 11.7178ZM6.11951 7.74109L6.9303 7.3357L6.11951 6.58282C5.44386 5.96508 5.07707 5.40525 4.30489 3.8995C4.28559 3.86089 3.95741 4.18907 3.57132 4.61377C3.18524 5.03847 2.54819 5.57899 2.1814 5.81064L1.48644 6.23534L2.47097 7.08474C3.0115 7.54805 3.64854 8.2237 3.86089 8.60979L4.28559 9.26614L4.80681 8.70631C5.07707 8.41675 5.67551 7.97274 6.11951 7.74109Z" fill="var(--fill-0, white)"/>
</g>
</svg>
