<svg preserveAspectRatio="none" width="100%" height="100%" overflow="visible" style="display: block;" viewBox="0 0 34.8901 63.3042" fill="none" xmlns="http://www.w3.org/2000/svg">
<g id="Group 11">
<path id="Vector" d="M9.06692 63.0922C8.82611 62.9317 8.4649 62.1691 8.30436 61.4066C7.58193 57.9951 3.68883 52.3762 1.16033 51.0116C-0.525341 50.0885 -0.404936 49.5266 1.72222 48.162C5.41464 45.7539 7.34112 42.3424 7.46152 38.0078C7.50166 35.8004 7.58193 35.5195 8.30436 35.5195C8.98665 35.5195 9.18733 36.0412 9.74922 39.1316C10.9533 45.5934 13.6423 49.9279 17.8565 52.015C19.4619 52.8578 19.7027 53.1387 19.3415 53.6204C19.0605 53.9414 18.1374 54.1823 17.2545 54.1823C13.7226 54.1823 11.0737 56.9114 10.5519 61.1256C10.3111 63.1324 9.90976 63.6541 9.06692 63.0922ZM10.271 56.189C10.873 55.306 12.077 54.2224 13.0403 53.7408C13.9634 53.2591 14.7661 52.8177 14.8464 52.7775C14.9266 52.6973 14.0838 51.7742 13.0403 50.7306C11.8362 49.5266 10.6322 47.7205 9.90976 46.075C9.22746 44.59 8.5853 43.3458 8.4649 43.3458C8.30436 43.3458 7.98328 43.8676 7.70233 44.5499C7.42139 45.192 6.21734 46.6369 5.01329 47.8008L2.846 49.8477L5.05342 52.0551C6.25747 53.2993 7.6622 55.0652 8.18395 56.0285C8.70571 56.9917 9.14719 57.7944 9.14719 57.7944C9.18733 57.7944 9.66895 57.072 10.271 56.189Z" fill="var(--fill-0, white)"/>
<path id="Vector_2" d="M25.5624 24.3619C25.2413 23.8803 24.9604 23.2783 24.9604 22.9572C24.9604 21.0709 21.3081 16.4554 18.298 14.569C17.3347 13.9268 16.532 13.2044 16.532 12.9636C16.532 12.6827 17.2946 12.0806 18.2578 11.599C20.987 10.1943 22.472 8.86984 23.355 6.98349C24.0774 5.4985 24.1978 4.8162 23.957 2.60878C23.6761 0.160545 23.7162 4.97303e-06 24.4788 4.97303e-06C25.3617 4.97303e-06 25.6427 0.76257 26.3651 4.41485C26.5256 5.17742 27.2481 7.1039 28.0106 8.7093C29.3752 11.599 30.9004 13.1643 33.7098 14.6091C34.4322 15.0105 34.9941 15.4921 34.8737 15.7731C34.7934 16.0139 33.7098 16.4955 32.4255 16.8166C30.7398 17.2179 29.6562 17.7798 28.4923 18.9036C26.8869 20.4287 26.8467 20.4689 27.1277 22.6361C27.4086 25.1245 26.6862 25.9272 25.5624 24.3619ZM29.2548 16.0941L30.9405 15.2513L29.2548 13.686C27.8501 12.4017 27.0875 11.2378 25.4821 8.10727C25.442 8.027 24.7597 8.7093 23.957 9.59227C23.1543 10.4752 21.8298 11.599 21.0673 12.0806L19.6224 12.9636L21.6693 14.7295C22.7931 15.6928 24.1175 17.0975 24.559 17.9002L25.442 19.2648L26.5256 18.1009C27.0875 17.4989 28.3317 16.5758 29.2548 16.0941Z" fill="var(--fill-0, white)"/>
</g>
</svg>
