<svg preserveAspectRatio="none" width="100%" height="100%" overflow="visible" style="display: block;" viewBox="0 0 101.926 128.543" fill="none" xmlns="http://www.w3.org/2000/svg">
<g id="Group 10">
<path id="Vector" d="M83.3934 99.5195C83.1805 99.3491 82.7546 98.2845 82.4565 97.1346C81.3067 92.4501 78.2405 88.7451 74.1096 87.0416C70.8304 85.6789 71.0434 84.8271 74.8336 84.4865C76.3667 84.3587 78.1553 83.9328 78.7515 83.5496C80.4124 82.4423 81.4345 80.0149 81.7752 76.3099C82.2862 71.0291 83.3083 71.3272 84.7988 77.2042C86.2893 83.2089 88.5038 86.701 91.8256 88.4044C94.0401 89.5117 93.6568 90.4911 91.059 90.4911C89.4407 90.4911 88.9297 90.7041 87.7373 91.8965C86.4171 93.2167 84.9691 96.7514 84.9691 98.6252C84.9691 99.4343 84.0748 99.9453 83.3934 99.5195ZM86.5448 90.0653C86.7578 90.0653 87.2262 89.7672 87.6947 89.4265C88.4186 88.8729 88.4186 88.7451 86.9281 86.9565C86.119 85.9344 84.9691 84.0606 84.4155 82.783L83.3934 80.5259L82.7121 81.8035C81.8177 83.507 79.22 85.8066 78.1553 85.8066C76.9203 85.8066 77.0906 86.1047 79.4329 88.2341C80.6253 89.2987 82.0733 91.0022 82.6695 92.0243L83.7767 93.8981L85.0117 91.9817C85.6931 90.917 86.3745 90.0653 86.5448 90.0653Z" fill="var(--fill-0, white)"/>
<path id="Vector_2" d="M92.5921 25.4616C91.6552 22.4379 89.9943 19.6698 87.865 17.4127C85.3524 14.7298 85.3524 13.8355 87.9076 13.8355C88.8445 13.8355 89.9091 13.7077 90.2924 13.58C91.2719 13.1967 92.081 11.4081 92.3791 8.7251C92.7198 5.9144 93.1031 5.19043 94.1678 5.40336C94.8066 5.53112 94.9769 5.95698 95.0621 7.83079C95.275 11.7487 97.1062 14.9853 100.428 17.1146C101.322 17.6683 102.004 18.3496 101.919 18.6052C101.833 18.8607 100.811 19.3291 99.6614 19.6272C97.1914 20.2235 95.8712 21.5862 95.1473 24.184C94.8917 25.1635 94.5936 26.2281 94.5085 26.5262C94.2104 27.5909 93.1031 26.9947 92.5921 25.4616ZM97.1914 18.4774L98.2135 18.0941L96.723 16.6036C95.8712 15.7945 94.9343 14.5595 94.5511 13.8781L93.9123 12.6431L92.4643 14.091C91.6552 14.9001 90.6757 15.5389 90.2924 15.5389C89.4407 15.5389 89.3981 15.4538 91.7403 18.9884L93.5716 21.8417L94.8917 20.3512C95.6157 19.5421 96.6378 18.6903 97.1914 18.4774Z" fill="var(--fill-0, white)"/>
<path id="Vector_3" d="M7.75993 26.3559C7.58958 26.1856 7.46182 25.5893 7.46182 25.0783C7.46182 22.5657 5.6306 19.1588 2.69214 16.2203C1.11644 14.6446 -0.11857 13.1541 0.0091896 12.9838C0.136949 12.8134 1.03126 12.5153 2.05334 12.3875C4.52336 12.0043 6.31199 10.8118 7.2063 8.98062C7.80251 7.70303 7.88769 6.80871 7.63217 3.87025C7.41923 0.889195 7.46182 0.292985 8.01545 0.0800523C9.08011 -0.303226 9.50597 0.633676 9.93184 4.12577C10.528 8.81028 12.6574 12.345 16.9586 15.8796C18.4917 17.1572 18.1084 17.6683 15.5533 17.6683C13.8498 17.6683 13.2962 17.8812 12.2315 18.9033C11.5501 19.6272 10.7836 21.0326 10.4429 22.225C9.50597 25.9726 9.29304 26.3985 8.69683 26.5262C8.35614 26.5688 7.93027 26.5262 7.75993 26.3559ZM10.8687 17.6257C11.6779 16.7739 12.6574 16.0074 12.9981 15.8796C13.5091 15.7093 13.4239 15.4112 12.5296 14.4317C11.9334 13.7503 10.9965 12.5153 10.4429 11.7062C9.88925 10.897 9.37821 10.1305 9.33563 10.0453C9.25045 9.96011 8.61166 10.5989 7.88769 11.4506C7.16372 12.2598 5.88612 13.1967 5.11957 13.4522L3.67163 14.0058L5.11957 15.5815C5.88612 16.4758 6.99337 17.9664 7.54699 18.9033C8.39872 20.4364 8.56907 20.5641 8.95235 19.9253C9.20787 19.4995 10.0596 18.4774 10.8687 17.6257Z" fill="var(--fill-0, white)"/>
<path id="Vector_4" d="M52.9055 128.41C52.7832 128.288 52.6915 127.86 52.6915 127.493C52.6915 125.689 51.3768 123.243 49.2672 121.133C48.1359 120.002 47.2493 118.932 47.341 118.81C47.4327 118.687 48.0748 118.473 48.8086 118.382C50.5819 118.106 51.866 117.25 52.508 115.936C52.9361 115.018 52.9972 114.376 52.8138 112.267C52.6609 110.127 52.6915 109.698 53.089 109.546C53.8533 109.27 54.159 109.943 54.4648 112.45C54.8928 115.813 56.4215 118.351 59.5095 120.889C60.6102 121.806 60.335 122.173 58.5006 122.173C57.2776 122.173 56.8801 122.326 56.1158 123.059C55.6266 123.579 55.0763 124.588 54.8317 125.444C54.159 128.135 54.0062 128.44 53.5781 128.532C53.3335 128.563 53.0278 128.532 52.9055 128.41ZM55.1374 122.142C55.7183 121.531 56.4215 120.98 56.6661 120.889C57.033 120.766 56.9719 120.552 56.3298 119.849C55.9018 119.36 55.2291 118.473 54.8317 117.892C54.4342 117.311 54.0673 116.761 54.0368 116.7C53.9756 116.639 53.517 117.097 52.9972 117.709C52.4775 118.29 51.5602 118.962 51.0099 119.146L49.9704 119.543L51.0099 120.675C51.5602 121.317 52.3552 122.387 52.7526 123.059C53.3641 124.16 53.4864 124.252 53.7616 123.793C53.945 123.487 54.5565 122.754 55.1374 122.142Z" fill="var(--fill-0, white)"/>
</g>
</svg>
