<svg preserveAspectRatio="none" width="100%" height="100%" overflow="visible" style="display: block;" viewBox="0 0 136 118.942" fill="none" xmlns="http://www.w3.org/2000/svg">
<g id="Group 7">
<path id="Vector" d="M33.0343 118.213C32.8814 117.806 33.0853 115.717 33.5948 113.627C34.2572 110.519 34.6139 109.806 35.3782 109.806C35.8877 109.806 36.4482 110.01 36.6011 110.213C36.9578 110.774 35.3782 117.551 34.7667 118.366C34.0534 119.181 33.391 119.13 33.0343 118.213Z" fill="var(--fill-0, #E84D8A)"/>
<path id="Vector_2" d="M89.6438 110.978C88.1152 107.564 88.37 105.933 90.2043 107.156C90.8667 107.564 92.9559 112.15 92.9559 113.169C92.9559 113.576 92.4973 113.882 91.9368 113.882C91.1725 113.882 90.561 113.118 89.6438 110.978Z" fill="var(--fill-0, #E84D8A)"/>
<path id="Vector_3" d="M73.9503 111.844C72.9822 111.029 71.6574 109.042 70.995 107.513C70.3326 105.984 69.6702 104.71 69.5173 104.71C69.3645 104.71 68.804 105.526 68.2435 106.545C66.0525 110.672 61.9252 112.048 59.8361 109.449C57.5941 106.647 59.3775 98.4941 63.4538 92.7872C65.6448 89.7809 67.5811 88.4052 69.8231 88.4052C73.6956 88.4052 80.1667 101.347 80.2177 109.143C80.2177 110.825 79.9629 111.487 78.8929 112.303C77.0585 113.729 75.9885 113.627 73.9503 111.844Z" fill="var(--fill-0, #E84D8A)"/>
<path id="Vector_4" d="M20.4486 112.048C20.041 111.64 23.1492 105.831 23.9644 105.526C24.2702 105.424 24.8307 105.526 25.1873 105.729C25.7478 106.086 25.544 106.749 24.3211 109.143C22.8434 111.895 21.3658 112.965 20.4486 112.048Z" fill="var(--fill-0, #E84D8A)"/>
<path id="Vector_5" d="M98.6119 107.819C96.3699 105.169 95.9623 103.691 97.44 103.691C98.7648 103.691 102.739 108.838 102.026 109.653C101.211 110.672 100.854 110.468 98.6119 107.819Z" fill="var(--fill-0, #E84D8A)"/>
<path id="Vector_6" d="M10.156 108.277C9.74841 107.615 14.8438 100.124 15.761 100.124C17.2896 100.124 17.0348 101.347 14.64 104.965C12.3471 108.532 10.9713 109.551 10.156 108.277Z" fill="var(--fill-0, #E84D8A)"/>
<path id="Vector_7" d="M105.491 102.825C103.045 100.838 102.587 99.8189 103.912 99.3093C104.37 99.1055 105.695 99.8698 107.224 101.144C109.262 102.876 109.669 103.437 109.211 103.997C108.395 105.016 108.141 104.914 105.491 102.825Z" fill="var(--fill-0, #E84D8A)"/>
<path id="Vector_8" d="M40.4223 89.0165C38.537 87.0803 36.5498 84.6345 35.9893 83.5135L34.9192 81.5263L34.8683 83.1568C34.8683 86.1121 33.7982 89.8318 32.7792 90.7489C31.4034 91.9718 28.0405 91.9209 26.6647 90.647C26.0532 90.0865 25.187 88.8636 24.6775 87.8955C23.7094 85.9593 22.1298 79.0295 22.1298 76.6347C22.1298 75.8194 21.926 75.157 21.6203 75.157C21.3655 75.157 21.1107 75.4628 21.1107 75.8194C21.1107 76.1761 20.4483 77.1442 19.6331 77.9085C16.8306 80.6091 12.7543 79.641 10.9199 75.9213C9.64609 73.3227 9.59513 69.4502 10.6652 59.3104C11.7352 49.2724 11.7352 38.674 10.6652 34.0882C9.79895 30.2666 6.38504 22.9293 2.05395 15.6429C0.0157965 12.178 -0.340881 11.3118 0.270566 10.9041C0.678197 10.6494 1.18774 10.5475 1.49346 10.5984C2.15586 10.8532 7.45507 19.872 9.95181 25.0693C13.1619 31.7443 13.9772 35.8206 13.9772 44.7885C13.9772 49.0177 13.6205 55.6926 13.2129 59.6161C12.8052 63.5395 12.4995 68.3802 12.4486 70.3164C12.4486 75.4118 13.8753 77.7047 16.6268 77.0423C18.2063 76.6347 19.3273 74.3927 19.8369 70.5712C20.3974 66.2911 21.5183 63.8453 22.8432 64.0491C23.8622 64.2019 23.9132 64.5586 24.2189 71.0807C24.5756 78.3162 25.6456 84.4306 27.1233 87.386C27.7857 88.7617 28.3462 89.2203 29.5691 89.3222C32.1677 89.577 32.5244 87.8446 32.0658 78.5709C31.4034 66.342 31.4034 66.7496 32.5754 66.7496C33.4416 66.7496 33.6963 67.3101 34.1549 70.5712C34.9702 75.9213 36.4988 79.9467 39.2503 83.9211C42.3075 88.4051 44.7533 90.5451 46.4858 90.3413C48.6258 90.0865 48.473 88.2522 45.5176 80.711C41.849 71.0807 39.9637 65.4248 40.2694 64.9153C40.8808 63.8962 42.0528 64.5586 42.97 66.4439C44.2948 68.9916 48.2692 72.4565 50.613 73.1189C53.3136 73.8832 57.0332 73.7303 59.2242 72.8132C63.3006 71.1317 66.9692 65.9344 66.9692 61.8071C66.9692 59.5651 65.8992 57.3232 64.7782 57.3232C64.4725 57.3232 63.1477 58.4441 61.8229 59.8199C57.1351 64.7115 50.3583 64.6096 46.231 59.6161C42.2566 54.8264 42.868 47.7948 47.6068 43.0561C49.8487 40.8141 52.1417 39.6931 56.6256 38.6231C60.651 37.6549 61.8739 36.7887 61.8739 34.9034C61.8739 32.1519 58.1542 30.3685 51.734 29.9609C48.2182 29.7571 46.5877 29.9609 43.5304 30.8271C37.0593 32.6615 37.5179 32.8653 34.9702 26.7508C31.0977 17.3753 26.5118 3.312 27.1233 2.70056C28.2443 1.57957 29.1105 2.85342 31.1486 8.96789C33.2887 15.5409 36.3459 23.7955 37.9255 27.5151L38.8427 29.6552L42.5623 28.6871C45.5176 27.9227 47.5048 27.7189 51.734 27.9227C60.4471 28.2794 64.4215 30.6743 64.4215 35.6168C64.4215 37.7569 62.791 39.2345 59.6319 39.9988C52.1926 41.8332 48.8297 43.9223 47.0463 47.8457C44.4476 53.5526 47.4029 60.0747 53.1098 61.1957C55.6065 61.7052 58.0523 60.5333 60.3962 57.7817C62.2305 55.5907 62.7401 55.285 64.4215 55.285C65.9502 55.285 66.7654 55.6417 67.9374 56.8646C69.415 58.2913 69.5169 58.3422 69.5169 57.3232C69.5169 56.7117 70.1793 55.5398 70.9946 54.7245C73.0837 52.6354 75.3257 52.7373 78.4848 55.0302C83.9369 58.9537 86.026 59.2085 87.8604 56.1512C90.0514 52.5844 88.4208 46.419 84.3445 42.9542C82.2045 41.1198 78.1282 39.4893 75.6824 39.4893C73.3385 39.4893 69.2622 38.0116 68.0902 36.7887C65.2878 33.8334 66.5616 29.859 70.8417 27.7189C73.0328 26.6999 74.1028 26.547 78.9434 26.496C83.5802 26.496 85.0579 26.6999 87.6056 27.668C92.8538 29.7061 92.5481 29.7571 94.841 26.1394C99.325 19.0568 102.841 10.5475 104.318 3.2101C104.879 0.611447 105.185 0 105.949 0C107.427 0 107.427 1.27385 106 6.82783C103.911 14.9805 98.7135 25.8846 94.4334 30.929L93.1596 32.5086L90.3061 31.1328C86.6884 29.3495 82.6631 28.2794 79.6058 28.2794C71.8608 28.2794 66.6635 32.101 70.1793 35.2601C71.8608 36.7887 72.1665 36.8906 76.4467 37.5021C78.6377 37.8078 81.2363 38.3683 82.2045 38.7759C90.3571 42.1898 94.2296 53.5016 88.9304 58.5461C87.4018 59.9728 84.6503 60.7371 82.6121 60.1766C81.8987 60.0237 79.9625 58.8518 78.281 57.5779C75.0709 55.1321 73.6442 54.7755 72.5232 56.1003C69.9755 59.2085 74.8671 66.8006 81.4402 69.8578C87.5546 72.7112 92.0895 70.4183 97.3378 61.8071C98.5607 59.8199 99.4778 58.8518 100.14 58.8518C100.65 58.8518 101.108 59.1065 101.108 59.4123C101.108 59.718 98.3569 65.4758 94.9939 72.1508C88.6756 84.7364 88.4208 85.7045 90.6628 86.5707C94.2805 87.9465 103.452 77.5009 106.204 68.9407C106.764 67.0554 108.242 66.2911 109.006 67.463C109.159 67.7178 107.681 72.2017 105.694 77.399C103.758 82.5963 102.127 87.2841 102.127 87.8446C102.127 90.3413 105.439 89.0675 109.159 85.144C112.063 82.0868 113.949 78.6729 115.07 74.4437C115.987 70.8769 116.598 70.0616 117.617 71.0807C118.229 71.7431 118.076 72.8132 116.598 78.9276C115.121 84.8892 114.968 86.1631 115.528 86.7236C116.649 87.8446 117.872 86.9274 119.401 83.8702C121.388 80.0486 122.866 74.9532 123.834 69.0426C124.7 63.7943 124.547 59.0556 123.222 48.9667C121.796 38.0116 122.509 31.6933 126.025 24.5088C128.674 19.1077 134.076 10.9551 135.044 10.9551C136.623 10.9551 136.267 12.5347 133.821 16.1524C125.566 28.2285 123.936 35.0053 125.821 49.2215C126.738 55.9474 126.84 65.9853 126.076 70.724C124.955 77.8066 121.592 86.4178 119.197 88.3031C116.649 90.2903 112.828 89.2203 112.828 86.5198C112.828 85.2969 112.726 85.3478 110.076 87.7427C106 91.4623 102.229 92.2266 100.14 89.7299C99.4778 88.9146 99.5288 87.4879 100.395 84.3287C100.701 83.2078 100.497 83.3097 98.5097 85.195C96.3187 87.2841 93.3124 88.9146 91.6309 88.9146C90.1533 88.9146 87.5037 87.335 86.9432 86.1121C86.2298 84.5326 86.6375 83.2078 89.8476 76.8385C91.2743 73.9341 92.3443 71.5903 92.2424 71.5903C92.1405 71.5903 91.1724 71.9469 90.1023 72.4055C84.3955 74.8004 76.141 71.1826 71.5551 64.3548L69.6188 61.4504L69.3131 63.5905C68.6507 67.9725 64.5744 73.1189 60.5491 74.6475C56.2689 76.278 51.2754 76.1252 47.5558 74.1889C46.4348 73.5775 45.5686 73.2717 45.5686 73.4756C45.5686 73.6794 46.7405 76.7366 48.1163 80.3034C49.543 83.8702 50.664 87.5388 50.664 88.507C50.664 91.0037 48.9316 92.4814 46.0781 92.4814C43.989 92.4814 43.5814 92.2776 40.4223 89.0165Z" fill="var(--fill-0, #E84D8A)"/>
</g>
</svg>
