<svg preserveAspectRatio="none" width="100%" height="100%" overflow="visible" style="display: block;" viewBox="0 0 43.7506 43.8285" fill="none" xmlns="http://www.w3.org/2000/svg">
<g id="Group 3">
<path id="Vector" d="M25.5295 43.3963C25.4122 43.1382 25.1306 42.1528 24.9195 41.2142C24.4502 39.126 24.3798 31.7586 24.8256 30.9374C25.5295 29.6 26.3507 31.3832 26.6792 35.0434C27.0077 38.6333 27.0781 42.622 26.8434 43.3259C26.6323 43.9594 25.858 44.0064 25.5295 43.3963Z" fill="var(--fill-0, #DADAF1)"/>
<path id="Vector_2" d="M14.1734 42.8566C13.2114 41.4723 14.1265 37.7182 16.684 32.5798C17.8102 30.2804 18.2326 29.6469 18.608 29.6469C19.1711 29.6469 19.1711 29.7173 18.2795 32.6971C17.8806 33.9876 17.294 36.3104 16.9655 37.859C16.1209 41.7539 15.9097 42.4812 15.4874 42.9739C15.0181 43.5136 14.5958 43.4901 14.1734 42.8566Z" fill="var(--fill-0, #DADAF1)"/>
<path id="Vector_3" d="M40.5459 37.3428C38.9269 36.2166 31.888 30.4212 31.7707 30.0927C31.3718 29.0603 32.5684 29.0369 33.8824 30.0693C36.3225 31.9463 40.3582 35.4892 40.8978 36.1931C41.4609 36.944 41.6721 37.7417 41.2967 37.7417C41.2029 37.7417 40.8509 37.554 40.5459 37.3428Z" fill="var(--fill-0, #DADAF1)"/>
<path id="Vector_4" d="M1.36247 34.1753C1.36247 33.6356 4.50653 30.8904 7.11094 29.1776C10.4427 26.9721 11.3812 26.4794 12.3198 26.4794C13.751 26.4794 13.2114 27.3006 10.7477 28.8961C10.0438 29.3419 7.93215 30.7966 6.0551 32.087C3.75571 33.706 2.44178 34.4568 2.01944 34.4568C1.64403 34.4568 1.36247 34.316 1.36247 34.1753Z" fill="var(--fill-0, #DADAF1)"/>
<path id="Vector_5" d="M36.7917 23.8046C34.0934 23.57 33.8588 23.4996 33.8588 23.0772C33.8588 22.6549 34.0465 22.608 35.5716 22.5376C37.3783 22.4672 42.2117 23.0303 43.3145 23.4526C43.8072 23.6403 43.8541 23.7342 43.596 23.8984C43.1502 24.18 40.5927 24.1331 36.7917 23.8046Z" fill="var(--fill-0, #DADAF1)"/>
<path id="Vector_6" d="M0.0485701 21.2706C-0.139135 20.9656 0.236275 20.4259 0.846317 20.1443C1.24519 19.9801 3.26302 19.8159 6.40708 19.7455C11.1701 19.6282 11.3578 19.6282 11.9209 20.0974C12.6717 20.7544 12.3667 20.9656 10.302 21.2002C8.40145 21.4348 0.189349 21.5052 0.0485701 21.2706Z" fill="var(--fill-0, #DADAF1)"/>
<path id="Vector_7" d="M32.9204 16.3668C32.592 15.8506 33.6947 14.8417 35.6891 13.8562C38.0119 12.7065 40.0063 12.3311 40.499 12.9412C40.851 13.34 40.7806 13.4104 39.4901 13.8093C38.9739 13.9735 37.5427 14.607 36.3226 15.2405C33.7182 16.5545 33.1316 16.7422 32.9204 16.3668Z" fill="var(--fill-0, #DADAF1)"/>
<path id="Vector_8" d="M12.6012 14.9121C9.57449 13.3166 5.89078 11.1345 5.16342 10.501C4.43606 9.86749 4.62377 9.46861 5.63268 9.49208C7.04047 9.539 14.5721 14.1143 15.276 15.3344C15.8157 16.2964 14.9945 16.1556 12.6012 14.9121Z" fill="var(--fill-0, #DADAF1)"/>
<path id="Vector_9" d="M18.6079 10.8999C17.8336 9.58595 17.0358 7.61505 15.7454 3.86094C14.713 0.857661 14.6426 -0.127791 15.3934 0.012988C15.9096 0.106841 18.2559 4.82293 19.1945 7.63851C20.3676 11.2049 19.9922 13.2697 18.6079 10.8999Z" fill="var(--fill-0, #DADAF1)"/>
<path id="Vector_10" d="M26.5384 10.3133C26.6323 9.44517 26.9608 7.94353 27.2658 6.98154C28.0401 4.63523 30.1518 0.271084 30.621 0.106842C31.583 -0.268568 31.4892 0.458789 29.8702 5.24527C27.8524 11.3457 27.5708 11.9323 26.9139 11.9323C26.4211 11.9323 26.3977 11.8619 26.5384 10.3133Z" fill="var(--fill-0, #DADAF1)"/>
</g>
</svg>
