<svg preserveAspectRatio="none" width="100%" height="100%" overflow="visible" style="display: block;" viewBox="0 0 7.78507 27.6864" fill="none" xmlns="http://www.w3.org/2000/svg">
<g id="Group 5">
<path id="Vector" d="M6.05993 27.4957C5.42105 27.1123 4.46273 24.5887 3.91967 22.0013C3.18496 18.3277 2.64191 10.8527 3.05718 9.79858C3.44051 8.80831 4.0794 8.64859 4.68634 9.35136C5.86827 10.7888 8.29603 24.6526 7.68909 26.5693C7.36965 27.5915 6.76271 27.9429 6.05993 27.4957Z" fill="var(--fill-0, #E84D8A)"/>
<path id="Vector_2" d="M0.53378 4.20834C-0.328713 3.09029 -0.137048 1.68475 1.04489 0.694478C2.13099 -0.295791 2.96154 -0.231903 4.11153 0.918087C4.91013 1.74864 5.03791 2.06808 4.87819 2.89863C4.59069 4.4 3.82403 5.07083 2.41849 5.07083C1.4921 5.07083 1.07683 4.87916 0.53378 4.20834Z" fill="var(--fill-0, #E84D8A)"/>
</g>
</svg>
