<svg preserveAspectRatio="none" width="100%" height="100%" overflow="visible" style="display: block;" viewBox="0 0 69.878 57.972" fill="none" xmlns="http://www.w3.org/2000/svg">
<g id="Group 6">
<path id="Vector" d="M30.209 57.6208C30.1132 57.3972 29.9854 56.375 29.8896 55.3208C29.5702 52.2861 28.2924 50.625 25.7369 49.8584C21.3605 48.5487 18.198 49.8903 15.1633 54.2986C13.8856 56.1514 13.2147 56.5986 12.1286 56.2472C11.2023 55.9597 11.0425 54.8417 11.6814 52.7014C12.8634 48.6126 11.33 43.0543 8.26339 40.2751L6.92174 39.0612L4.17454 39.221C-0.521255 39.5085 -1.12819 38.7099 1.71484 35.9627C3.82315 33.9502 5.7398 30.8197 5.7398 29.4461C5.7398 27.4975 4.52592 24.1114 2.89677 21.4281C0.309294 17.2434 1.04401 16.0614 4.87731 18.2017C7.36896 19.6072 9.31755 19.735 11.4898 18.6489C14.3008 17.2114 15.1314 14.9753 15.1953 8.6504C15.2272 2.80461 15.1314 3.25183 16.4411 3.47544C17.2078 3.60322 18.198 4.2421 19.5716 5.48792C24.8424 10.3115 28.2924 9.51289 32.3493 2.51712C34.266 -0.773133 34.809 -0.805077 36.1826 2.22962C37.2368 4.5296 38.6423 5.83931 40.7826 6.44625C43.9131 7.37263 47.7783 6.25458 50.0464 3.79488C50.5894 3.156 51.1964 2.77267 51.388 2.90045C52.6339 3.66711 50.4297 6.41431 47.3311 7.91568C45.4784 8.84206 44.8714 8.96984 42.795 8.96984C40.9103 8.93789 40.0159 8.77817 38.6104 8.10735C37.0132 7.37263 34.1701 4.91293 34.1701 4.27405C34.1701 3.66711 33.6271 4.11432 33.0521 5.16848C32.3174 6.54208 30.4646 8.23512 28.7396 9.12956C25.7688 10.6309 22.4786 10.1518 19.2522 7.72402C18.23 6.95736 17.3675 6.35042 17.3355 6.38236C17.3036 6.41431 17.4314 7.08513 17.5911 7.85179C18.1022 9.99205 17.7189 13.3142 16.7605 15.4545C15.0036 19.2878 12.0328 21.2683 8.03978 21.2683H5.7398L6.37869 22.5461C7.81617 25.3891 8.39117 29.7974 7.62451 32.1613C7.43284 32.7682 6.82591 33.7905 6.3148 34.4613C5.38842 35.6432 5.38842 35.6432 6.12313 35.6432C7.36896 35.6432 10.1481 37.496 11.5217 39.2529C13.2467 41.3932 13.8856 42.9904 14.5883 46.5042C15.0356 48.8681 15.2272 49.3473 15.6106 49.1875C19.5077 47.5584 24.9063 47.1431 27.4618 48.2931C28.8035 48.932 30.3049 50.3056 31.7743 52.382L32.4132 53.3083L33.4354 52.4459C36.6618 49.7306 43.2742 49.7625 46.1811 52.5097L46.852 53.1486L47.97 51.8389C50.0783 49.3153 53.8797 47.8778 57.138 48.3889L58.7671 48.6445L58.5116 47.814C57.9685 45.8973 58.3199 43.0543 59.3741 40.914C60.4282 38.8057 62.4407 36.7293 63.7824 36.4099C64.8046 36.1543 64.7088 35.8349 63.3352 35.196C61.3546 34.2696 59.9171 32.896 58.8949 31.1071C58.0963 29.6377 57.9685 29.0947 57.9685 26.8586C57.9685 23.8239 58.6713 22.2586 61.3866 19.0642C62.3129 17.9462 63.0157 16.9559 62.9518 16.8281C62.8879 16.7323 61.8018 16.2531 60.556 15.8059C53.9755 13.4101 51.7075 11.0782 51.7394 6.7018C51.7714 3.73099 53.0491 1.46296 54.6783 1.46296C55.7324 1.46296 55.7644 1.59074 54.9338 3.21989C54.4866 4.11432 54.295 5.10459 54.295 6.73375C54.295 10.9823 55.7005 12.292 62.1532 14.1129C66.274 15.2948 67.8073 15.8698 68.1907 16.4767C68.5101 16.9878 67.7434 18.0739 67.0087 18.0739C65.8907 18.0739 63.6226 19.6072 62.6643 21.0447C61.3546 22.9614 60.9074 24.5266 61.0671 26.8905C61.1629 28.4877 61.3866 29.1905 62.1532 30.2766C63.399 32.0655 65.5712 33.3752 67.6476 33.6307C69.4684 33.8224 70.1393 34.4932 69.7879 35.6432C69.5323 36.4418 68.4782 37.0488 67.7754 36.7613C67.424 36.6335 66.5615 37.3043 64.9643 38.9335C63.1115 40.8182 62.5685 41.6168 62.0893 43.1182C61.2907 45.6098 61.7699 47.782 63.7185 50.7209C64.5171 51.9028 65.156 53.0847 65.156 53.3403C65.156 54.4583 63.8143 54.2028 60.1088 52.4139C55.7005 50.2737 54.0713 50.082 52.0589 51.4236C50.6214 52.382 48.9603 54.8097 48.4811 56.6305C47.97 58.643 47.1714 58.4194 45.0631 55.6083C43.4339 53.4681 42.2839 52.8931 39.6006 52.8931C36.9812 52.8931 35.7993 53.4681 33.2437 55.9278C31.1035 58.0041 30.4326 58.3555 30.209 57.6208Z" fill="var(--fill-0, #E84D8A)"/>
</g>
</svg>
