<svg preserveAspectRatio="none" width="100%" height="100%" overflow="visible" style="display: block;" viewBox="0 0 20 20" fill="none" xmlns="http://www.w3.org/2000/svg">
<g id="Google Logomark">
<g id="Google Logomark_2">
<path d="M10.222 8.38385V11.8263H15.0058C14.7957 12.9334 14.1654 13.8708 13.2199 14.5011L16.1048 16.7395C17.7856 15.188 18.7553 12.9092 18.7553 10.2021C18.7553 9.57184 18.6988 8.96571 18.5937 8.38395L10.222 8.38385Z" fill="#4285F4"/>
<path d="M5.24029 11.6919L4.58964 12.19L2.28656 13.9839C3.74919 16.8849 6.74697 18.889 10.2217 18.889C12.6217 18.889 14.6338 18.0971 16.1045 16.7395L13.2197 14.5011C12.4278 15.0344 11.4176 15.3577 10.2217 15.3577C7.9106 15.3577 5.94701 13.7981 5.24392 11.6971L5.24029 11.6919Z" fill="#34A853"/>
<path d="M2.28661 6.0162C1.68058 7.21212 1.33314 8.56164 1.33314 10C1.33314 11.4384 1.68052 12.788 2.28656 13.9839C2.28656 13.9919 5.24426 11.6889 5.24426 11.6889C5.06648 11.1555 4.9614 10.5899 4.9614 9.99992C4.9614 9.40994 5.06648 8.84431 5.24426 8.31098L2.28661 6.0162Z" fill="#FBBC05"/>
<path d="M10.2219 4.65052C11.531 4.65052 12.6946 5.10304 13.6239 5.97578L16.1694 3.43035C14.6259 1.99198 12.622 1.11111 10.2219 1.11111C6.74715 1.11111 3.74925 3.10709 2.28661 6.0162L5.24412 8.31116C5.94711 6.21012 7.91079 4.65052 10.2219 4.65052Z" fill="var(--fill-0, #EA4335)"/>
</g>
</g>
</svg>
