<svg preserveAspectRatio="none" width="100%" height="100%" overflow="visible" style="display: block;" viewBox="0 0 80.0003 65.6134" fill="none" xmlns="http://www.w3.org/2000/svg">
<g id="Group 6">
<path id="Union" d="M21.5357 0.192185C16.5232 -0.487734 10.5967 0.497502 5.66772 5.40071C0.85464 10.1888 -0.375446 15.862 0.0921658 20.7749C0.539753 25.4772 2.51931 29.5396 4.29569 31.992L4.85027 32.6421L36.1758 63.9676C38.2173 66.0091 41.4874 66.0727 43.6057 64.1589L43.6067 64.1601L43.6305 64.1362C43.6903 64.0815 43.7494 64.0255 43.8072 63.9676C43.8649 63.9099 43.9208 63.8511 43.9752 63.7915L47.6186 60.1482L43.8299 56.3591C43.8223 56.3515 43.8148 56.3437 43.8072 56.3362L12.8255 25.3541C12.0038 24.1066 11.0513 22.0077 10.8366 19.7522C10.6232 17.5107 11.1159 15.2044 13.2793 13.0523C15.3268 11.0155 17.6365 10.5549 20.0849 10.887C22.5555 11.2221 24.9017 12.3687 26.3121 13.3483L36.1755 23.212C38.2829 25.3194 41.6998 25.3194 43.8072 23.212C43.8322 23.1871 43.8567 23.1617 43.881 23.1364L47.622 19.3951L33.6376 5.41063L33.0489 4.90131C30.5376 3.02769 26.3528 0.845642 21.5357 0.192185Z" fill="var(--fill-0, white)" fill-opacity="0.5"/>
<path id="Union_2" d="M58.4646 0.257594C63.477 -0.422325 69.4036 0.562911 74.3326 5.46612C79.1456 10.2542 80.3757 15.9274 79.9081 20.8403C79.4605 25.5426 77.481 29.6051 75.7046 32.0574L75.15 32.7075L43.8245 64.033C41.783 66.0745 38.5129 66.1381 36.3945 64.2243L36.3936 64.2255L36.3697 64.2016C36.31 64.1469 36.2509 64.0909 36.193 64.033C36.1354 63.9754 36.0795 63.9165 36.025 63.8569L32.3817 60.2136L36.1704 56.4245C36.178 56.4169 36.1855 56.4091 36.193 56.4016L67.1748 25.4195C67.9964 24.172 68.949 22.0731 69.1637 19.8176C69.3771 17.5761 68.8843 15.2699 66.721 13.1177C64.6735 11.0809 62.3638 10.6203 59.9153 10.9524C57.4448 11.2875 55.0986 12.4341 53.6882 13.4137L43.8248 23.2774C41.7174 25.3849 38.3005 25.3848 36.193 23.2774C36.1681 23.2525 36.1436 23.2271 36.1193 23.2018L32.3783 19.4605L46.3627 5.47604L46.9514 4.96671C49.4626 3.0931 53.6475 0.911051 58.4646 0.257594Z" fill="var(--fill-0, white)"/>
<path id="Vector 3 (Stroke)" d="M57.162 18.4986C58.4636 17.197 60.5741 17.197 61.8758 18.4986C63.1774 19.8003 63.1774 21.9108 61.8758 23.2124L42.671 42.4172C41.3694 43.7188 39.2589 43.7188 37.9572 42.4172L26.1248 30.5848C24.8232 29.2831 24.8232 27.1726 26.1248 25.871C27.4265 24.5693 29.5369 24.5693 30.8386 25.871L40.3141 35.3465L57.162 18.4986Z" fill="var(--fill-0, white)"/>
</g>
</svg>
