<svg preserveAspectRatio="none" width="100%" height="100%" overflow="visible" style="display: block;" viewBox="0 0 48.5414 45.0266" fill="none" xmlns="http://www.w3.org/2000/svg">
<g id="Group 4">
<path id="Vector" d="M24.6093 44.6064C24.0931 44.0902 23.835 42.8701 23.3188 38.4825C22.9669 35.3619 23.0373 34.0245 23.5769 33.8603C24.0462 33.6961 24.3747 34.6815 25.1959 38.7641C26.0405 43.0579 26.1579 44.3249 25.7121 44.7707C25.3367 45.1461 25.1255 45.1226 24.6093 44.6064Z" fill="var(--fill-0, white)"/>
<path id="Vector_2" d="M9.40519 41.392C9.1471 40.7115 9.82753 39.1864 11.5169 36.6524C13.2766 34.0245 14.2386 33.2737 13.957 34.7284C13.7693 35.6435 11.3996 40.1015 10.5783 41.0635C9.92138 41.8612 9.61636 41.9316 9.40519 41.392Z" fill="var(--fill-0, white)"/>
<path id="Vector_3" d="M37.3265 39.0457C35.4495 37.1217 33.2439 34.0246 33.3143 33.4614C33.4082 32.8045 34.3232 32.6872 34.9567 33.2503C35.6606 33.8838 38.6404 38.4122 38.8047 39.0926C38.8985 39.4211 38.8516 39.7965 38.6874 39.9607C38.4997 40.1484 38.1477 39.9138 37.3265 39.0457Z" fill="var(--fill-0, white)"/>
<path id="Vector_4" d="M1.82662 31.2324C1.82662 30.3408 2.20203 30.0827 5.36955 28.7453C7.83318 27.713 9.71023 27.361 9.52253 27.9945C9.40521 28.3465 8.77171 28.7453 5.51033 30.5285C2.57744 32.124 1.82662 32.2648 1.82662 31.2324Z" fill="var(--fill-0, white)"/>
<path id="Vector_5" d="M41.6436 29.6839C39.3442 29.0738 38.4291 28.5811 38.4291 27.9476C38.4291 26.6806 39.8604 26.7275 43.7318 28.1353C46.2658 29.0738 47.1809 29.6839 46.5708 30.0827C46.0547 30.4112 43.7318 30.2235 41.6436 29.6839Z" fill="var(--fill-0, white)"/>
<path id="Vector_6" d="M1.94397 20.3455C-0.0973269 20.064 -0.590053 19.5243 0.747346 19.0081C1.77972 18.6327 6.75391 19.7824 6.75391 20.3925C6.75391 20.6975 4.24335 20.674 1.94397 20.3455Z" fill="var(--fill-0, white)"/>
<path id="Vector_7" d="M39.6726 18.2573C38.5698 17.7177 38.7106 16.4506 39.9307 15.8641C41.4558 15.1367 46.5942 14.7378 47.9081 15.254C49.2221 15.7468 48.4478 16.4741 45.9842 17.0372C45.116 17.2484 43.5205 17.6473 42.4412 17.9758C40.2357 18.6093 40.3765 18.5858 39.6726 18.2573Z" fill="var(--fill-0, white)"/>
<path id="Vector_8" d="M8.23206 10.2799C5.32263 6.38501 5.51034 6.69003 5.95614 6.61964C6.19077 6.54926 7.10583 7.27661 8.30245 8.47323C10.2734 10.4207 11.0242 11.5469 10.813 12.1335C10.5315 12.8843 9.78063 12.3447 8.23206 10.2799Z" fill="var(--fill-0, white)"/>
<path id="Vector_9" d="M33.1498 9.92792C32.6101 9.41173 32.8448 8.37935 34.0649 5.91572C34.8391 4.32023 35.1911 3.85097 35.7777 3.59287C36.9743 3.12361 37.1385 3.6398 36.3408 5.18837C35.9654 5.89226 35.4961 7.06542 35.3084 7.81624C34.6984 10.1156 33.9945 10.7961 33.1498 9.92792Z" fill="var(--fill-0, white)"/>
<path id="Vector_10" d="M19.166 8.2855C18.8845 7.5816 17.899 3.28785 17.6644 1.76274C17.5705 1.10577 17.6409 0.683438 17.899 0.354954C18.251 -0.114308 18.251 -0.114308 18.6029 0.331491C19.2364 1.1527 20.5973 6.22074 20.5973 7.81623C20.5973 8.84861 20.5504 8.919 20.0107 8.919C19.5649 8.919 19.3537 8.7313 19.166 8.2855Z" fill="var(--fill-0, white)"/>
</g>
</svg>
