<svg preserveAspectRatio="none" width="100%" height="100%" overflow="visible" style="display: block;" viewBox="0 0 46.0997 44.7436" fill="none" xmlns="http://www.w3.org/2000/svg">
<g id="Group 2">
<path id="Vector" d="M18.9295 44.5735C18.3898 44.0573 19.0233 40.3971 19.9618 38.567C20.4546 37.605 20.478 37.605 20.7127 38.1212C21.0177 38.8016 20.5719 42.6965 20.0557 43.9166C19.7507 44.6908 19.2814 44.9489 18.9295 44.5735Z" fill="var(--fill-0, #DADAF1)"/>
<path id="Vector_2" d="M28.4086 44.1747C27.7047 43.33 26.6254 36.9949 27.1885 36.9949C27.7516 36.9949 29.5583 41.6641 29.5583 43.1892C29.5583 44.1512 28.8779 44.7378 28.4086 44.1747Z" fill="var(--fill-0, #DADAF1)"/>
<path id="Vector_3" d="M9.61454 40.6317C9.23913 40.1625 9.49722 39.5759 10.6938 38.1915C11.5854 37.1592 13.2513 35.8218 13.6502 35.8218C13.9552 35.8218 13.1105 37.3469 11.7497 39.2943C10.5061 41.0071 10.1307 41.2652 9.61454 40.6317Z" fill="var(--fill-0, #DADAF1)"/>
<path id="Vector_4" d="M37.9112 38.3793C36.3861 36.4553 34.0163 32.8889 34.0163 32.4666C34.0163 31.9504 38.6386 35.8922 39.6944 37.3235C40.4687 38.3793 40.5156 39.0832 39.9056 39.834L39.4832 40.3737L37.9112 38.3793Z" fill="var(--fill-0, #DADAF1)"/>
<path id="Vector_5" d="M3.51424 32.5369C3.06844 32.2554 3.39692 31.6688 4.26506 31.1292C5.43821 30.4253 9.35656 28.7359 9.63811 28.8298C10.1074 28.994 8.60574 30.2141 6.58791 31.3169C4.07735 32.7012 3.88965 32.7716 3.51424 32.5369Z" fill="var(--fill-0, #DADAF1)"/>
<path id="Vector_6" d="M42.3456 28.079C39.225 26.8354 37.7703 26.155 37.7703 25.9438C37.7703 25.6857 38.7792 25.8969 42.0875 26.8354C45.3489 27.7505 46.0997 28.079 46.0997 28.5482C46.0997 29.1818 44.7389 29.0175 42.3456 28.079Z" fill="var(--fill-0, #DADAF1)"/>
<path id="Vector_7" d="M0.34648 23.2925C-0.0993195 22.9171 -0.122783 22.9171 0.323017 22.5651C0.979985 22.0724 8.67589 22.3774 8.67589 22.8936C8.67589 23.1048 7.19772 23.269 3.16206 23.5036C1.23808 23.621 0.72189 23.5975 0.34648 23.2925Z" fill="var(--fill-0, #DADAF1)"/>
<path id="Vector_8" d="M38.7089 20.0076C38.7089 19.6557 40.8206 18.9518 43.0965 18.5764C45.0674 18.2244 45.5601 18.201 45.8651 18.4591C46.3813 18.8814 45.959 19.2803 44.692 19.6088C43.425 19.9138 38.7089 20.2423 38.7089 20.0076Z" fill="var(--fill-0, #DADAF1)"/>
<path id="Vector_9" d="M7.6202 14.705C3.70185 13.2972 2.10636 12.2413 2.10636 11.1386C2.10636 10.0593 2.41138 9.9185 3.49068 10.4816C5.3912 11.4436 10.3888 15.2212 10.0838 15.4558C10.0134 15.5027 8.91067 15.1742 7.6202 14.705Z" fill="var(--fill-0, #DADAF1)"/>
<path id="Vector_10" d="M38.2629 11.1386C40.0696 9.4492 41.9701 8.25258 42.4159 8.51068C43.0259 8.90955 43.0025 9.2615 42.322 9.895C41.5478 10.6224 39.1545 11.7721 38.0048 11.9832L37.1836 12.1475L38.2629 11.1386Z" fill="var(--fill-0, #DADAF1)"/>
<path id="Vector_11" d="M13.7675 7.80682C12.5005 6.51635 11.0224 4.47505 10.7173 3.63038C10.5296 3.11419 11.0927 2.38683 11.562 2.57454C12.4301 2.90302 15.363 7.92413 15.1988 8.79227C15.1284 9.09729 14.7765 8.86266 13.7675 7.80682Z" fill="var(--fill-0, #DADAF1)"/>
<path id="Vector_12" d="M31.5292 7.40796C31.7873 6.07056 33.3124 3.06728 34.1336 2.26953C34.7906 1.63603 34.9079 1.5891 35.166 1.89412C35.4006 2.17568 35.4006 2.4807 35.0956 3.3723C34.6498 4.66277 32.6554 7.50181 31.8812 7.92415C31.3884 8.18224 31.365 8.15878 31.5292 7.40796Z" fill="var(--fill-0, #DADAF1)"/>
<path id="Vector_13" d="M23.0824 6.37554C22.7774 4.6862 23.2936 0.767854 23.9505 0.0639597C24.0679 -0.053356 24.3025 -0.00642977 24.5371 0.181275C25.2879 0.791317 24.5606 5.90628 23.5751 6.93866C23.317 7.22022 23.2232 7.12636 23.0824 6.37554Z" fill="var(--fill-0, #DADAF1)"/>
</g>
</svg>
